<?xml version="1.0" encoding="utf-8"?>
<!-- Generator: Adobe Illustrator 17.0.0, SVG Export Plug-In . SVG Version: 6.00 Build 0)  -->
<!DOCTYPE svg PUBLIC "-//W3C//DTD SVG 1.1//EN" "http://www.w3.org/Graphics/SVG/1.1/DTD/svg11.dtd">
<svg version="1.1" id="Layer_1" xmlns="http://www.w3.org/2000/svg" xmlns:xlink="http://www.w3.org/1999/xlink" x="0px" y="0px"
	 width="612px" height="792px" viewBox="0 0 612 792" enable-background="new 0 0 612 792" xml:space="preserve">
<g>
	<path fill="#333031" d="M475.746,239.28v339.474H162.458c-14.382,0-26.051-11.669-26.051-26.051s11.669-26.051,26.051-26.051
		h287.237V187.043H162.458c-28.9,0-52.237,23.337-52.237,52.237v313.287c0,28.9,23.337,52.237,52.237,52.237h339.474V239.28H475.746
		z M162.458,291.517v-78.288h261.05v287.237h-261.05L162.458,291.517L162.458,291.517z M371.271,265.466H214.56V239.28h156.712
		v26.186H371.271z M319.034,317.703H214.56v-26.186h104.474V317.703z M266.797,369.941H214.56V343.89h52.237V369.941z"/>
</g>
</svg>
